<?xml version="1.0" encoding="UTF-8" standalone="no"?>
<!-- Created with Inkscape (http://www.inkscape.org/) -->

<svg
   version="1.1"
   id="svg970"
   xml:space="preserve"
   width="816"
   height="1056"
   viewBox="0 0 816 1056"
   sodipodi:docname="logo_cp2.svg"
   inkscape:version="1.1.1 (c3084ef, 2021-09-22)"
   xmlns:inkscape="http://www.inkscape.org/namespaces/inkscape"
   xmlns:sodipodi="http://sodipodi.sourceforge.net/DTD/sodipodi-0.dtd"
   xmlns="http://www.w3.org/2000/svg"
   xmlns:svg="http://www.w3.org/2000/svg"><defs
     id="defs974"><clipPath
       clipPathUnits="userSpaceOnUse"
       id="clipPath984"><path
         d="M 0,0 H 612 V 792 H 0 Z"
         id="path982" /></clipPath><clipPath
       clipPathUnits="userSpaceOnUse"
       id="clipPath1012"><path
         d="M 0,792 H 612 V 0 H 0 Z"
         id="path1010" /></clipPath></defs><sodipodi:namedview
     id="namedview972"
     pagecolor="#505050"
     bordercolor="#ffffff"
     borderopacity="1"
     inkscape:pageshadow="0"
     inkscape:pageopacity="0"
     inkscape:pagecheckerboard="1"
     showgrid="false"
     inkscape:zoom="1.0672754"
     inkscape:cx="466.60872"
     inkscape:cy="547.65622"
     inkscape:window-width="1407"
     inkscape:window-height="847"
     inkscape:window-x="0"
     inkscape:window-y="25"
     inkscape:window-maximized="0"
     inkscape:current-layer="g976" /><g
     id="g976"
     inkscape:groupmode="layer"
     inkscape:label="logo_cp2"
     transform="matrix(1.3333333,0,0,-1.3333333,0,1056)"><g
       id="g2218"
       transform="matrix(5.2348014,0,0,5.2348014,-212.47998,-3264.0751)"
       style="stroke-width:0.191029"><g
         id="g1030"
         transform="translate(116.6343,702.2666)"
         style="stroke-width:0.191029"><path
           d="m 0,0 c -1.191,1.447 -2.402,1.93 -3.979,1.93 -1.837,0 -3.201,-1.622 -3.733,-2.149 l -11.866,-14.378 c -3.02,-3.659 -7.962,-3.659 -10.982,0 -3.02,3.66 -3.02,9.648 0,13.307 l 21.075,25.537 c 1.147,1.389 2.57,2.248 4.06,2.582 2.582,0.812 5.446,0.008 7.459,-2.431 L 23.109,-1.138 c 3.02,-3.66 3.02,-9.648 0,-13.307 -3.02,-3.659 -7.962,-3.659 -10.982,0 z"
           style="fill:#f68716;fill-opacity:1;fill-rule:nonzero;stroke:none;stroke-width:0.191029"
           id="path1032" /></g><g
         id="g1204"
         transform="translate(102.2583,725.1611)"
         style="stroke-width:0.191029"><path
           d="m 0,0 -4.945,5.872 c -2.013,2.439 -4.877,3.242 -7.459,2.431 -1.49,-0.335 -2.913,-1.194 -4.06,-2.583 l -21.075,-25.536 c -3.02,-3.66 -3.02,-9.647 0,-13.307 3.02,-3.659 7.962,-3.659 10.982,0 z"
           style="fill:#1b3149;fill-opacity:1;fill-rule:nonzero;stroke:none;stroke-width:0.191029"
           id="path1206" /></g><g
         id="g1208"
         transform="translate(116.6343,697.8403)"
         style="stroke-width:0.191029"><path
           d="m 0,0 c -1.191,1.448 -2.402,1.93 -3.979,1.93 -1.837,0 -3.201,-1.621 -3.733,-2.149 l -4.854,-5.881 3.338,-3.977 c 3.02,-3.659 7.962,-3.659 10.982,0 1.243,1.506 1.973,3.407 2.193,5.376 z"
           style="fill:#1b3149;fill-opacity:1;fill-rule:nonzero;stroke:none;stroke-width:0.191029"
           id="path1210" /></g></g></g></svg>
