<?xml version="1.0" encoding="UTF-8" standalone="no"?>
<svg
   viewBox="0 0 199.51 118.73"
   version="1.1"
   id="svg2544"
   sodipodi:docname="isotipo_valuami_previo.svg"
   inkscape:version="1.1.1 (c3084ef, 2021-09-22)"
   xmlns:inkscape="http://www.inkscape.org/namespaces/inkscape"
   xmlns:sodipodi="http://sodipodi.sourceforge.net/DTD/sodipodi-0.dtd"
   xmlns="http://www.w3.org/2000/svg"
   xmlns:svg="http://www.w3.org/2000/svg">
  <sodipodi:namedview
     id="namedview2546"
     pagecolor="#505050"
     bordercolor="#ffffff"
     borderopacity="1"
     inkscape:pageshadow="0"
     inkscape:pageopacity="0"
     inkscape:pagecheckerboard="1"
     showgrid="false"
     inkscape:zoom="0.96027881"
     inkscape:cx="118.19484"
     inkscape:cy="137.98076"
     inkscape:window-width="1399"
     inkscape:window-height="847"
     inkscape:window-x="0"
     inkscape:window-y="25"
     inkscape:window-maximized="0"
     inkscape:current-layer="svg2544" />
  <defs
     id="defs2536">
    <rect
       x="-23.75894"
       y="39.055791"
       width="435.33719"
       height="108.3792"
       id="rect5336" />
    <style
       id="style2534">.cls-1{fill:#04344c;}.cls-2{fill:#8c8c8c;}</style>
  </defs>
  <g
     id="Layer_2"
     data-name="Layer 2"
     transform="matrix(0.4635549,0,0,0.4635549,52.629,31.286569)"
     style="stroke-width:2.15725">
    <g
       id="Layer_1-2"
       data-name="Layer 1"
       style="stroke-width:2.15725">
      <path
         class="cls-1"
         d="M 53.51,25.05 11.58,1.05 A 7.71,7.71 0 0 0 1.05,11.56 L 50.63,99 A 7.71,7.71 0 0 0 64,99 L 113.59,11.59 A 7.71,7.71 0 0 0 103.1,1.06 l -41.93,24 a 7.75,7.75 0 0 1 -7.66,-0.01 z"
         id="path2538"
         style="stroke-width:2.15725" />
      <path
         class="cls-2"
         d="m 146,93.69 41.93,24 A 7.71,7.71 0 0 0 198.46,107.2 L 148.87,19.76 a 7.71,7.71 0 0 0 -13.41,0 l -49.58,87.42 a 7.71,7.71 0 0 0 10.53,10.49 l 41.93,-24 a 7.7,7.7 0 0 1 7.66,0.02 z"
         id="path2540"
         style="stroke-width:2.15725" />
    </g>
  </g>
  <text
     xml:space="preserve"
     id="text5334"
     style="font-size:48px;line-height:1.25;font-family:sans-serif;white-space:pre;shape-inside:url(#rect5336);stroke-width:2.15725"
     transform="matrix(0.40311751,-0.22886552,0.22886552,0.40311751,8.1621171,75.397646)"><tspan
       x="-23.759766"
       y="82.848496"
       id="tspan986"><tspan
         style="font-weight:bold;-inkscape-font-specification:'sans-serif Bold';fill:#ff0000"
         id="tspan984">Previo sin valor</tspan></tspan></text>
</svg>
