<?xml version="1.0" encoding="UTF-8" standalone="no"?>
<!-- Created with Inkscape (http://www.inkscape.org/) -->

<svg
   version="1.1"
   id="svg824"
   xml:space="preserve"
   width="816"
   height="1056"
   viewBox="0 0 816 1056"
   sodipodi:docname="logo_cp2.svg"
   inkscape:version="1.1.1 (c3084ef, 2021-09-22)"
   xmlns:inkscape="http://www.inkscape.org/namespaces/inkscape"
   xmlns:sodipodi="http://sodipodi.sourceforge.net/DTD/sodipodi-0.dtd"
   xmlns="http://www.w3.org/2000/svg"
   xmlns:svg="http://www.w3.org/2000/svg"><defs
     id="defs828"><clipPath
       clipPathUnits="userSpaceOnUse"
       id="clipPath838"><path
         d="M 0,0 H 612 V 792 H 0 Z"
         id="path836" /></clipPath><clipPath
       clipPathUnits="userSpaceOnUse"
       id="clipPath866"><path
         d="M 0,792 H 612 V 0 H 0 Z"
         id="path864" /></clipPath></defs><sodipodi:namedview
     id="namedview826"
     pagecolor="#505050"
     bordercolor="#ffffff"
     borderopacity="1"
     inkscape:pageshadow="0"
     inkscape:pageopacity="0"
     inkscape:pagecheckerboard="1"
     showgrid="false"
     inkscape:zoom="0.61268939"
     inkscape:cx="426.8068"
     inkscape:cy="528"
     inkscape:window-width="1399"
     inkscape:window-height="847"
     inkscape:window-x="0"
     inkscape:window-y="25"
     inkscape:window-maximized="0"
     inkscape:current-layer="g830" /><g
     id="g830"
     inkscape:groupmode="layer"
     inkscape:label="logo_cp2"
     transform="matrix(1.3333333,0,0,-1.3333333,0,1056)"><g
       id="g1921"
       transform="matrix(3.1338564,0,0,3.1338564,-196.92229,-1773.6163)"
       style="stroke-width:0.319096"><g
         id="g884"
         transform="translate(116.6343,702.2666)"
         style="stroke-width:0.319096"><path
           d="m 0,0 c -1.191,1.447 -2.402,1.93 -3.979,1.93 -1.837,0 -3.201,-1.622 -3.733,-2.149 l -11.866,-14.378 c -3.02,-3.659 -7.962,-3.659 -10.982,0 -3.02,3.66 -3.02,9.648 0,13.307 l 21.075,25.537 c 1.147,1.389 2.57,2.248 4.06,2.582 2.582,0.812 5.446,0.008 7.459,-2.431 L 23.109,-1.138 c 3.02,-3.66 3.02,-9.648 0,-13.307 -3.02,-3.659 -7.962,-3.659 -10.982,0 z"
           style="fill:#f68716;fill-opacity:1;fill-rule:nonzero;stroke:none;stroke-width:0.319096"
           id="path886" /></g><g
         id="g888"
         transform="translate(160.4102,716.4458)"
         style="stroke-width:0.319096"><path
           d="m 0,0 v -1.745 c -0.353,-0.208 -0.69,-0.379 -1.012,-0.514 -0.322,-0.135 -0.655,-0.254 -0.997,-0.358 -0.364,-0.114 -0.712,-0.195 -1.044,-0.242 -0.332,-0.046 -0.66,-0.07 -0.982,-0.07 -1.786,0 -3.26,0.545 -4.423,1.636 -1.174,1.09 -1.761,2.492 -1.761,4.206 0,1.661 0.587,3.053 1.761,4.175 0.591,0.56 1.253,0.978 1.986,1.254 0.732,0.275 1.529,0.412 2.391,0.412 0.612,0 1.246,-0.083 1.9,-0.249 0.353,-0.083 0.691,-0.187 1.013,-0.311 0.322,-0.125 0.67,-0.286 1.043,-0.483 V 5.888 c -0.529,0.301 -0.96,0.527 -1.292,0.678 -0.333,0.15 -0.649,0.272 -0.951,0.366 -0.612,0.187 -1.23,0.28 -1.854,0.28 -1.236,0 -2.263,-0.41 -3.084,-1.23 -0.831,-0.81 -1.246,-1.833 -1.246,-3.069 0,-1.277 0.405,-2.311 1.215,-3.1 0.82,-0.8 1.875,-1.2 3.162,-1.2 0.706,0 1.366,0.109 1.979,0.327 0.155,0.052 0.308,0.109 0.459,0.172 0.151,0.062 0.312,0.135 0.483,0.218 0.171,0.083 0.358,0.179 0.561,0.288 C -0.491,-0.273 -0.259,-0.146 0,0"
           style="fill:#1b3149;fill-opacity:1;fill-rule:nonzero;stroke:none;stroke-width:0.319096"
           id="path890" /></g><g
         id="g892"
         transform="translate(169.6484,716.3208)"
         style="stroke-width:0.319096"><path
           d="M 0,0 C 0.851,0.852 1.277,1.864 1.277,3.038 1.277,4.211 0.851,5.224 0,6.076 -0.841,6.917 -1.865,7.337 -3.069,7.337 -4.284,7.337 -5.312,6.917 -6.154,6.076 -6.995,5.234 -7.416,4.222 -7.416,3.038 -7.416,1.843 -7,0.831 -6.169,0 c 0.841,-0.841 1.875,-1.262 3.1,-1.262 1.204,0 2.228,0.421 3.069,1.262 M 1.199,7.213 C 2.362,6.081 2.944,4.689 2.944,3.038 c 0,-1.641 -0.582,-3.027 -1.745,-4.16 -1.153,-1.121 -2.575,-1.682 -4.268,-1.682 -1.714,0 -3.142,0.556 -4.284,1.667 -1.153,1.121 -1.729,2.513 -1.729,4.175 0,1.661 0.571,3.048 1.713,4.159 1.153,1.122 2.586,1.682 4.3,1.682 1.682,0 3.105,-0.555 4.268,-1.666"
           style="fill:#1b3149;fill-opacity:1;fill-rule:nonzero;stroke:none;stroke-width:0.319096"
           id="path894" /></g><g
         id="g896"
         transform="translate(178.7612,720.6675)"
         style="stroke-width:0.319096"><path
           d="m 0,0 c 0.187,0.145 0.33,0.316 0.428,0.514 0.099,0.197 0.148,0.441 0.148,0.732 0,0.519 -0.187,0.924 -0.56,1.215 -0.426,0.311 -1.008,0.467 -1.745,0.467 h -1.449 v -3.38 h 1.371 c 0.415,0 0.771,0.039 1.067,0.117 C -0.444,-0.257 -0.198,-0.146 0,0 M 1.979,-3.35 4.362,-7.01 H 2.461 L 0.483,-3.926 C 0.286,-3.625 0.101,-3.35 -0.07,-3.1 c -0.172,0.249 -0.346,0.472 -0.522,0.669 -0.291,0.343 -0.742,0.514 -1.355,0.514 H -3.178 V -7.01 H -4.782 V 4.393 h 3.069 c 0.591,0 1.126,-0.062 1.604,-0.187 C 0.369,4.081 0.789,3.884 1.153,3.614 1.516,3.333 1.789,2.991 1.971,2.585 2.152,2.181 2.243,1.729 2.243,1.23 2.243,0.441 2.004,-0.198 1.526,-0.686 1.225,-0.987 0.909,-1.236 0.576,-1.434 0.659,-1.517 0.74,-1.605 0.818,-1.698 0.896,-1.792 0.976,-1.896 1.059,-2.01 1.225,-2.249 1.384,-2.477 1.534,-2.695 1.685,-2.914 1.833,-3.131 1.979,-3.35"
           style="fill:#1b3149;fill-opacity:1;fill-rule:nonzero;stroke:none;stroke-width:0.319096"
           id="path898" /></g><g
         id="g900"
         transform="translate(188.9956,720.6675)"
         style="stroke-width:0.319096"><path
           d="m 0,0 c 0.187,0.145 0.33,0.316 0.428,0.514 0.099,0.197 0.148,0.441 0.148,0.732 0,0.519 -0.186,0.924 -0.56,1.215 -0.426,0.311 -1.008,0.467 -1.745,0.467 h -1.449 v -3.38 h 1.371 c 0.415,0 0.771,0.039 1.067,0.117 C -0.444,-0.257 -0.197,-0.146 0,0 M 1.979,-3.35 4.362,-7.01 H 2.461 L 0.483,-3.926 C 0.286,-3.625 0.101,-3.35 -0.07,-3.1 c -0.171,0.249 -0.346,0.472 -0.522,0.669 -0.291,0.343 -0.742,0.514 -1.355,0.514 H -3.178 V -7.01 H -4.782 V 4.393 h 3.069 c 0.591,0 1.126,-0.062 1.604,-0.187 C 0.369,4.081 0.789,3.884 1.153,3.614 1.516,3.333 1.789,2.991 1.971,2.585 2.152,2.181 2.243,1.729 2.243,1.23 2.243,0.441 2.004,-0.198 1.527,-0.686 1.226,-0.987 0.909,-1.236 0.576,-1.434 0.66,-1.517 0.74,-1.605 0.818,-1.698 0.896,-1.792 0.976,-1.896 1.059,-2.01 1.226,-2.249 1.384,-2.477 1.534,-2.695 1.685,-2.914 1.833,-3.131 1.979,-3.35"
           style="fill:#1b3149;fill-opacity:1;fill-rule:nonzero;stroke:none;stroke-width:0.319096"
           id="path902" /></g><g
         id="g904"
         transform="translate(201.146,715.1216)"
         style="stroke-width:0.319096"><path
           d="M 0,0 V -1.464 H -6.714 V 9.938 h 6.605 V 8.474 H -5.11 V 5 h 4.86 V 3.536 H -5.11 V 0 Z"
           style="fill:#1b3149;fill-opacity:1;fill-rule:nonzero;stroke:none;stroke-width:0.319096"
           id="path906" /></g><g
         id="g908"
         transform="translate(209.8228,716.2744)"
         style="stroke-width:0.319096"><path
           d="m 0,0 c 0.82,0.768 1.23,1.792 1.23,3.069 0,1.277 -0.404,2.305 -1.214,3.084 -0.81,0.779 -1.912,1.168 -3.303,1.168 h -2.492 v -8.474 h 2.461 C -1.927,-1.153 -0.821,-0.769 0,0 M 1.23,7.259 C 1.792,6.74 2.209,6.132 2.484,5.437 2.76,4.741 2.897,3.951 2.897,3.069 2.897,1.407 2.368,0.042 1.309,-1.028 0.769,-1.568 0.13,-1.968 -0.607,-2.228 -1.345,-2.487 -2.176,-2.617 -3.1,-2.617 H -7.384 V 8.786 h 4.175 c 0.924,0 1.755,-0.125 2.492,-0.374 C 0.021,8.163 0.669,7.778 1.23,7.259"
           style="fill:#1b3149;fill-opacity:1;fill-rule:nonzero;stroke:none;stroke-width:0.319096"
           id="path910" /></g><g
         id="g912"
         transform="translate(224.731,725.0601)"
         style="stroke-width:0.319096"><path
           d="m 0,0 v -6.402 c 0,-0.738 -0.109,-1.413 -0.328,-2.026 -0.217,-0.613 -0.55,-1.163 -0.996,-1.651 -0.904,-0.976 -2.072,-1.464 -3.506,-1.464 -1.422,0 -2.586,0.473 -3.489,1.418 -0.903,0.944 -1.355,2.159 -1.355,3.645 V 0 h 1.604 v -6.418 c 0,-0.582 0.075,-1.088 0.226,-1.519 0.151,-0.431 0.371,-0.802 0.662,-1.114 0.582,-0.633 1.371,-0.95 2.368,-0.95 0.987,0 1.766,0.327 2.337,0.981 0.28,0.322 0.496,0.704 0.646,1.145 0.151,0.442 0.226,0.953 0.226,1.535 V 0 Z"
           style="fill:#1b3149;fill-opacity:1;fill-rule:nonzero;stroke:none;stroke-width:0.319096"
           id="path914" /></g><g
         id="g916"
         transform="translate(230.9619,720.6675)"
         style="stroke-width:0.319096"><path
           d="m 0,0 c 0.187,0.145 0.33,0.316 0.428,0.514 0.099,0.197 0.148,0.441 0.148,0.732 0,0.519 -0.187,0.924 -0.56,1.215 -0.427,0.311 -1.008,0.467 -1.745,0.467 h -1.449 v -3.38 h 1.371 c 0.415,0 0.771,0.039 1.067,0.117 C -0.444,-0.257 -0.198,-0.146 0,0 M 1.979,-3.35 4.362,-7.01 H 2.461 L 0.483,-3.926 C 0.286,-3.625 0.101,-3.35 -0.07,-3.1 c -0.172,0.249 -0.346,0.472 -0.522,0.669 -0.291,0.343 -0.743,0.514 -1.355,0.514 H -3.178 V -7.01 H -4.782 V 4.393 h 3.069 c 0.591,0 1.126,-0.062 1.604,-0.187 C 0.368,4.081 0.789,3.884 1.153,3.614 1.516,3.333 1.789,2.991 1.97,2.585 2.152,2.181 2.243,1.729 2.243,1.23 2.243,0.441 2.004,-0.198 1.526,-0.686 1.225,-0.987 0.909,-1.236 0.576,-1.434 0.659,-1.517 0.74,-1.605 0.818,-1.698 0.896,-1.792 0.976,-1.896 1.059,-2.01 1.225,-2.249 1.384,-2.477 1.534,-2.695 1.685,-2.914 1.833,-3.131 1.979,-3.35"
           style="fill:#1b3149;fill-opacity:1;fill-rule:nonzero;stroke:none;stroke-width:0.319096"
           id="path918" /></g><path
         d="m 237.769,713.657 h -1.589 v 11.403 h 1.589 z m 0.436,15.033 h 2.399 l -3.146,-3.209 h -1.387 z"
         style="fill:#1b3149;fill-opacity:1;fill-rule:nonzero;stroke:none;stroke-width:0.319096"
         id="path920" /><g
         id="g922"
         transform="translate(242.769,718.7979)"
         style="stroke-width:0.319096"><path
           d="M 0,0 H 3.35 L 1.667,3.676 Z M 2.15,6.34 7.4,-5.141 H 5.702 L 4.02,-1.464 H -0.669 L -2.352,-5.141 H -4.065 L 1.2,6.34 Z"
           style="fill:#1b3149;fill-opacity:1;fill-rule:nonzero;stroke:none;stroke-width:0.319096"
           id="path924" /></g><g
         id="g926"
         transform="translate(162.8794,707.8311)"
         style="stroke-width:0.319096"><path
           d="m 0,0 c -0.457,0.384 -1.081,0.577 -1.87,0.577 h -2.133 v -4.285 h 2.04 c 0.841,0 1.49,0.182 1.947,0.546 0.468,0.373 0.701,0.909 0.701,1.604 C 0.685,-0.893 0.457,-0.374 0,0 M 0.639,-3.661 C 0.026,-4.149 -0.821,-4.393 -1.9,-4.393 H -4.003 V -9.362 H -4.829 V 1.262 h 3.006 c 1.07,0 1.901,-0.239 2.493,-0.717 0.592,-0.488 0.888,-1.194 0.888,-2.118 0,-0.904 -0.307,-1.6 -0.919,-2.088"
           style="fill:#1b3149;fill-opacity:1;fill-rule:nonzero;stroke:none;stroke-width:0.319096"
           id="path928" /></g><g
         id="g930"
         transform="translate(171.1665,709.981)"
         style="stroke-width:0.319096"><path
           d="m 0,0 h -0.499 l 1.621,2.43 h 1.262 z m 2.944,-10.313 c -0.831,-0.893 -1.9,-1.339 -3.209,-1.339 -1.308,0 -2.378,0.43 -3.209,1.293 -0.831,0.882 -1.246,2.009 -1.246,3.38 v 6.091 h 0.825 v -6.029 c 0,-1.215 0.328,-2.181 0.982,-2.897 0.664,-0.717 1.553,-1.075 2.664,-1.075 1.101,0 1.973,0.368 2.617,1.106 0.654,0.727 0.981,1.708 0.981,2.944 v 5.951 h 0.826 v -6.013 c 0,-1.371 -0.41,-2.508 -1.231,-3.412"
           style="fill:#1b3149;fill-opacity:1;fill-rule:nonzero;stroke:none;stroke-width:0.319096"
           id="path932" /></g><g
         id="g934"
         transform="translate(183.2393,702.9399)"
         style="stroke-width:0.319096"><path
           d="m 0,0 c -0.55,0.363 -1.324,0.545 -2.321,0.545 h -1.854 v -4.331 h 2.119 c 0.872,0 1.568,0.182 2.087,0.546 0.509,0.373 0.764,0.898 0.764,1.573 C 0.795,-0.919 0.53,-0.364 0,0 m -0.856,4.938 c -0.478,0.353 -1.185,0.53 -2.119,0.53 h -1.2 V 1.23 h 1.247 c 0.882,0 1.568,0.172 2.056,0.515 0.488,0.363 0.732,0.882 0.732,1.557 0,0.738 -0.239,1.282 -0.716,1.636 M 0.717,-3.708 C 0.083,-4.217 -0.789,-4.471 -1.9,-4.471 H -5 V 6.153 h 2.305 c 1.08,0 1.922,-0.239 2.524,-0.716 C 0.441,4.948 0.748,4.263 0.748,3.38 0.748,2.871 0.623,2.425 0.374,2.041 0.125,1.656 -0.265,1.324 -0.794,1.043 -0.067,0.919 0.52,0.639 0.966,0.202 c 0.468,-0.457 0.701,-1.054 0.701,-1.791 0,-0.914 -0.317,-1.62 -0.95,-2.119"
           style="fill:#1b3149;fill-opacity:1;fill-rule:nonzero;stroke:none;stroke-width:0.319096"
           id="path936" /></g><g
         id="g938"
         transform="translate(187.1646,698.4687)"
         style="stroke-width:0.319096"><path
           d="M 0,0 V 10.625 H 0.826 V 0.686 h 5.25 V 0 Z"
           style="fill:#1b3149;fill-opacity:1;fill-rule:nonzero;stroke:none;stroke-width:0.319096"
           id="path940" /></g><path
         d="m 194.658,709.093 h 0.81 v -10.625 h -0.81 z"
         style="fill:#1b3149;fill-opacity:1;fill-rule:nonzero;stroke:none;stroke-width:0.319096"
         id="path942" /><g
         id="g944"
         transform="translate(206.3022,698.9517)"
         style="stroke-width:0.319096"><path
           d="m 0,0 c -0.296,-0.114 -0.61,-0.223 -0.942,-0.327 -0.655,-0.197 -1.288,-0.296 -1.901,-0.296 -1.693,0 -3.079,0.509 -4.159,1.527 -1.091,1.007 -1.636,2.315 -1.636,3.925 0,1.547 0.545,2.846 1.636,3.895 1.1,1.038 2.471,1.557 4.112,1.557 0.551,0 1.153,-0.077 1.807,-0.233 0.654,-0.166 1.241,-0.384 1.76,-0.654 V 8.475 c -0.498,0.29 -1.08,0.539 -1.744,0.747 -0.623,0.197 -1.278,0.296 -1.963,0.296 -1.35,0 -2.471,-0.446 -3.365,-1.339 -0.903,-0.894 -1.355,-2.01 -1.355,-3.35 0,-1.381 0.441,-2.508 1.324,-3.38 0.883,-0.872 2.03,-1.309 3.443,-1.309 0.757,0 1.459,0.114 2.103,0.343 0.332,0.114 0.636,0.236 0.911,0.366 0.275,0.13 0.532,0.262 0.771,0.397 V 0.39 C 0.563,0.244 0.296,0.114 0,0"
           style="fill:#1b3149;fill-opacity:1;fill-rule:nonzero;stroke:none;stroke-width:0.319096"
           id="path946" /></g><g
         id="g948"
         transform="translate(212.8213,707.8311)"
         style="stroke-width:0.319096"><path
           d="M 0,0 -2.274,-5 H 2.29 Z M 4.284,-9.362 2.602,-5.686 H -2.585 L -4.268,-9.362 H -5.125 L -0.218,1.34 H 0.234 L 5.125,-9.362 Z"
           style="fill:#1b3149;fill-opacity:1;fill-rule:nonzero;stroke:none;stroke-width:0.319096"
           id="path950" /></g><g
         id="g952"
         transform="translate(233.8047,698.4687)"
         style="stroke-width:0.319096"><path
           d="M 0,0 -8.069,9.285 V 0 h -0.826 v 10.625 h 0.701 c 0.675,-0.811 1.345,-1.6 2.009,-2.369 0.665,-0.768 1.34,-1.531 2.026,-2.29 0.685,-0.758 1.36,-1.521 2.025,-2.29 C -1.47,2.908 -0.8,2.119 -0.125,1.309 v 9.316 H 0.701 V 0 Z"
           style="fill:#1b3149;fill-opacity:1;fill-rule:nonzero;stroke:none;stroke-width:0.319096"
           id="path954" /></g><path
         d="m 237.247,699.996 h 0.997 v -1.527 h -0.997 z"
         style="fill:#1b3149;fill-opacity:1;fill-rule:nonzero;stroke:none;stroke-width:0.319096"
         id="path956" /><g
         id="g958"
         transform="translate(240.6274,698.4687)"
         style="stroke-width:0.319096"><path
           d="M 0,0 V 0.218 C 0.332,0.55 0.641,0.873 0.927,1.184 1.212,1.496 1.48,1.792 1.729,2.072 2.259,2.653 2.783,3.323 3.303,4.082 3.51,4.383 3.692,4.681 3.848,4.977 4.003,5.273 4.149,5.572 4.284,5.873 4.543,6.455 4.673,7.051 4.673,7.665 4.673,8.329 4.445,8.89 3.988,9.347 3.542,9.793 2.976,10.017 2.29,10.017 1.792,10.017 1.35,9.908 0.966,9.689 0.592,9.461 0.229,9.181 -0.125,8.848 v 0.951 c 0.198,0.186 0.52,0.394 0.966,0.623 0.416,0.228 0.919,0.342 1.511,0.342 0.894,0 1.636,-0.296 2.228,-0.888 C 5.182,9.285 5.483,8.552 5.483,7.68 5.483,7.026 5.317,6.325 4.985,5.577 4.808,5.213 4.637,4.889 4.471,4.604 4.305,4.317 4.149,4.071 4.003,3.863 3.806,3.593 3.614,3.326 3.427,3.061 3.24,2.796 3.048,2.534 2.851,2.274 2.643,2.015 2.433,1.758 2.22,1.503 2.007,1.249 1.786,0.992 1.558,0.732 H 6.496 V 0 Z"
           style="fill:#1b3149;fill-opacity:1;fill-rule:nonzero;stroke:none;stroke-width:0.319096"
           id="path960" /></g><g
         id="g962"
         transform="translate(152.5073,690.1226)"
         style="stroke-width:0.319096"><path
           d="M 0,0 -0.098,0.843 V 5.136 H 0.49 V 0 Z m -1.159,-0.09 c -0.292,0 -0.559,0.078 -0.802,0.235 -0.244,0.157 -0.438,0.378 -0.584,0.663 -0.146,0.284 -0.218,0.62 -0.218,1.007 0,0.384 0.071,0.716 0.214,0.998 0.143,0.281 0.333,0.497 0.57,0.649 0.238,0.152 0.498,0.228 0.782,0.228 0.263,0 0.495,-0.064 0.695,-0.192 C -0.303,3.37 -0.148,3.185 -0.038,2.944 0.073,2.704 0.128,2.412 0.128,2.071 h -0.226 c 0,0.238 -0.047,0.439 -0.141,0.602 C -0.333,2.836 -0.456,2.96 -0.606,3.044 -0.757,3.128 -0.918,3.17 -1.092,3.17 -1.288,3.17 -1.466,3.116 -1.628,3.006 -1.79,2.897 -1.919,2.742 -2.016,2.54 -2.113,2.337 -2.161,2.096 -2.161,1.815 c 0,-0.286 0.048,-0.532 0.145,-0.738 0.097,-0.206 0.226,-0.364 0.388,-0.474 0.162,-0.111 0.34,-0.166 0.536,-0.166 0.163,0 0.321,0.042 0.473,0.128 0.152,0.085 0.277,0.21 0.374,0.374 0.099,0.165 0.147,0.364 0.147,0.597 H 0.128 C 0.128,1.187 0.071,0.892 -0.043,0.649 -0.157,0.407 -0.312,0.223 -0.506,0.098 -0.701,-0.028 -0.918,-0.09 -1.159,-0.09"
           style="fill:#7a7c7d;fill-opacity:1;fill-rule:nonzero;stroke:none;stroke-width:0.319096"
           id="path964" /></g><g
         id="g966"
         transform="translate(155.772,690.0322)"
         style="stroke-width:0.319096"><path
           d="m 0,0 c -0.312,0 -0.589,0.08 -0.834,0.239 -0.245,0.159 -0.438,0.381 -0.58,0.665 -0.142,0.283 -0.212,0.61 -0.212,0.979 0,0.393 0.069,0.732 0.21,1.016 0.141,0.284 0.333,0.501 0.578,0.653 C -0.593,3.704 -0.314,3.78 0,3.78 0.273,3.78 0.507,3.725 0.7,3.615 0.894,3.504 1.049,3.354 1.167,3.167 1.285,2.978 1.367,2.766 1.414,2.528 1.46,2.291 1.473,2.046 1.453,1.792 H -1.152 V 2.154 H 1.065 L 0.892,2.041 c 0.007,0.148 0,0.296 -0.024,0.444 C 0.844,2.633 0.799,2.769 0.734,2.894 0.669,3.018 0.577,3.118 0.459,3.193 0.341,3.268 0.19,3.306 0.007,3.306 -0.224,3.306 -0.417,3.247 -0.572,3.129 -0.728,3.011 -0.845,2.856 -0.923,2.664 -1,2.472 -1.04,2.264 -1.04,2.041 V 1.8 c 0,-0.251 0.039,-0.476 0.116,-0.674 C -0.848,0.928 -0.733,0.771 -0.58,0.655 -0.427,0.54 -0.234,0.482 0,0.482 c 0.233,0 0.425,0.057 0.576,0.169 0.151,0.113 0.242,0.28 0.275,0.501 h 0.61 C 1.423,0.914 1.338,0.708 1.205,0.537 1.072,0.364 0.902,0.232 0.696,0.139 0.491,0.046 0.258,0 0,0"
           style="fill:#7a7c7d;fill-opacity:1;fill-rule:nonzero;stroke:none;stroke-width:0.319096"
           id="path968" /></g><path
         d="m 160.177,695.258 h 0.587 v -5.136 h -0.587 z"
         style="fill:#7a7c7d;fill-opacity:1;fill-rule:nonzero;stroke:none;stroke-width:0.319096"
         id="path970" /><g
         id="g972"
         transform="translate(164.5142,690.1226)"
         style="stroke-width:0.319096"><path
           d="m 0,0 -0.075,0.791 v 1.543 c 0,0.324 -0.069,0.557 -0.207,0.699 -0.138,0.142 -0.345,0.213 -0.622,0.213 -0.155,0 -0.297,-0.023 -0.423,-0.068 C -1.454,3.132 -1.554,3.063 -1.628,2.969 -1.702,2.875 -1.739,2.753 -1.739,2.605 h -0.656 c 0,0.262 0.064,0.472 0.192,0.631 0.128,0.16 0.305,0.275 0.53,0.347 0.224,0.071 0.481,0.107 0.769,0.107 0.277,0 0.521,-0.046 0.735,-0.14 C 0.044,3.458 0.211,3.31 0.332,3.108 0.452,2.906 0.512,2.643 0.512,2.319 V 0 Z m -1.228,-0.09 c -0.296,0 -0.54,0.052 -0.733,0.158 -0.194,0.105 -0.338,0.242 -0.434,0.41 -0.095,0.168 -0.143,0.345 -0.143,0.531 0,0.243 0.061,0.442 0.183,0.595 0.122,0.153 0.288,0.265 0.499,0.337 0.21,0.072 0.448,0.107 0.711,0.107 0.188,0 0.377,-0.019 0.567,-0.056 0.19,-0.038 0.375,-0.089 0.556,-0.155 V 1.468 c -0.151,0.061 -0.321,0.108 -0.511,0.143 -0.189,0.035 -0.363,0.053 -0.521,0.053 -0.241,0 -0.445,-0.049 -0.61,-0.148 -0.166,-0.099 -0.249,-0.268 -0.249,-0.507 0,-0.176 0.064,-0.326 0.19,-0.452 0.127,-0.125 0.33,-0.188 0.609,-0.188 0.196,0 0.372,0.046 0.529,0.137 0.156,0.092 0.281,0.207 0.373,0.345 0.091,0.138 0.137,0.276 0.137,0.414 H 0.068 C 0.068,1.024 0.016,0.801 -0.088,0.595 -0.193,0.389 -0.341,0.223 -0.535,0.098 -0.728,-0.028 -0.959,-0.09 -1.228,-0.09"
           style="fill:#7a7c7d;fill-opacity:1;fill-rule:nonzero;stroke:none;stroke-width:0.319096"
           id="path974" /></g><g
         id="g976"
         transform="translate(168.7988,692.457)"
         style="stroke-width:0.319096"><path
           d="M 0,0 H 0.926 C 1.255,0 1.504,0.084 1.673,0.252 1.843,0.42 1.928,0.647 1.928,0.934 1.928,1.225 1.843,1.457 1.673,1.63 1.504,1.803 1.255,1.89 0.926,1.89 H 0 Z m -0.595,-2.334 v 4.729 h 1.521 c 0.52,0 0.917,-0.132 1.192,-0.394 C 2.393,1.739 2.53,1.383 2.53,0.934 2.53,0.489 2.393,0.137 2.118,-0.123 1.843,-0.382 1.446,-0.512 0.926,-0.512 H 0 v -1.822 z"
           style="fill:#7a7c7d;fill-opacity:1;fill-rule:nonzero;stroke:none;stroke-width:0.319096"
           id="path978" /></g><path
         d="m 172.387,695.258 h 0.587 v -5.136 h -0.587 z"
         style="fill:#7a7c7d;fill-opacity:1;fill-rule:nonzero;stroke:none;stroke-width:0.319096"
         id="path980" /><g
         id="g982"
         transform="translate(176.7241,690.1226)"
         style="stroke-width:0.319096"><path
           d="m 0,0 -0.075,0.791 v 1.543 c 0,0.324 -0.069,0.557 -0.207,0.699 C -0.42,3.175 -0.627,3.246 -0.903,3.246 -1.059,3.246 -1.2,3.223 -1.327,3.178 -1.454,3.132 -1.554,3.063 -1.628,2.969 -1.702,2.875 -1.739,2.753 -1.739,2.605 h -0.656 c 0,0.262 0.064,0.472 0.192,0.631 0.129,0.16 0.305,0.275 0.53,0.347 0.224,0.071 0.481,0.107 0.77,0.107 0.276,0 0.52,-0.046 0.734,-0.14 C 0.044,3.458 0.211,3.31 0.332,3.108 0.452,2.906 0.512,2.643 0.512,2.319 V 0 Z m -1.228,-0.09 c -0.295,0 -0.54,0.052 -0.733,0.158 -0.194,0.105 -0.338,0.242 -0.434,0.41 -0.095,0.168 -0.143,0.345 -0.143,0.531 0,0.243 0.061,0.442 0.183,0.595 0.122,0.153 0.288,0.265 0.499,0.337 0.211,0.072 0.448,0.107 0.711,0.107 0.189,0 0.378,-0.019 0.567,-0.056 0.19,-0.038 0.375,-0.089 0.556,-0.155 V 1.468 c -0.151,0.061 -0.321,0.108 -0.511,0.143 -0.189,0.035 -0.363,0.053 -0.521,0.053 -0.241,0 -0.445,-0.049 -0.61,-0.148 -0.166,-0.099 -0.249,-0.268 -0.249,-0.507 0,-0.176 0.064,-0.326 0.191,-0.452 0.126,-0.125 0.329,-0.188 0.608,-0.188 0.196,0 0.372,0.046 0.529,0.137 0.157,0.092 0.281,0.207 0.373,0.345 0.091,0.138 0.137,0.276 0.137,0.414 H 0.068 C 0.068,1.024 0.016,0.801 -0.088,0.595 -0.192,0.389 -0.341,0.223 -0.535,0.098 -0.728,-0.028 -0.958,-0.09 -1.228,-0.09"
           style="fill:#7a7c7d;fill-opacity:1;fill-rule:nonzero;stroke:none;stroke-width:0.319096"
           id="path984" /></g><g
         id="g986"
         transform="translate(178.2793,690.1226)"
         style="stroke-width:0.319096"><path
           d="m 0,0 v 0.475 l 2.124,2.65 H 0 V 3.6 H 2.786 V 3.125 L 0.692,0.475 H 2.786 V 0 Z"
           style="fill:#7a7c7d;fill-opacity:1;fill-rule:nonzero;stroke:none;stroke-width:0.319096"
           id="path988" /></g><g
         id="g990"
         transform="translate(184.4424,690.1226)"
         style="stroke-width:0.319096"><path
           d="m 0,0 -0.075,0.791 v 1.543 c 0,0.324 -0.069,0.557 -0.207,0.699 C -0.42,3.175 -0.627,3.246 -0.903,3.246 -1.059,3.246 -1.2,3.223 -1.327,3.178 -1.454,3.132 -1.554,3.063 -1.628,2.969 -1.702,2.875 -1.739,2.753 -1.739,2.605 h -0.656 c 0,0.262 0.064,0.472 0.192,0.631 0.128,0.16 0.305,0.275 0.53,0.347 0.224,0.071 0.481,0.107 0.77,0.107 0.276,0 0.52,-0.046 0.734,-0.14 C 0.044,3.458 0.211,3.31 0.332,3.108 0.452,2.906 0.512,2.643 0.512,2.319 V 0 Z m -1.228,-0.09 c -0.295,0 -0.54,0.052 -0.733,0.158 -0.194,0.105 -0.338,0.242 -0.434,0.41 -0.095,0.168 -0.143,0.345 -0.143,0.531 0,0.243 0.061,0.442 0.183,0.595 0.122,0.153 0.288,0.265 0.499,0.337 0.211,0.072 0.448,0.107 0.711,0.107 0.189,0 0.377,-0.019 0.567,-0.056 0.19,-0.038 0.375,-0.089 0.556,-0.155 V 1.468 c -0.151,0.061 -0.321,0.108 -0.511,0.143 -0.189,0.035 -0.363,0.053 -0.521,0.053 -0.241,0 -0.445,-0.049 -0.61,-0.148 -0.166,-0.099 -0.249,-0.268 -0.249,-0.507 0,-0.176 0.064,-0.326 0.19,-0.452 0.127,-0.125 0.33,-0.188 0.609,-0.188 0.196,0 0.372,0.046 0.529,0.137 0.156,0.092 0.281,0.207 0.373,0.345 0.091,0.138 0.137,0.276 0.137,0.414 H 0.068 C 0.068,1.024 0.016,0.801 -0.088,0.595 -0.193,0.389 -0.341,0.223 -0.535,0.098 -0.728,-0.028 -0.958,-0.09 -1.228,-0.09"
           style="fill:#7a7c7d;fill-opacity:1;fill-rule:nonzero;stroke:none;stroke-width:0.319096"
           id="path992" /></g><g
         id="g994"
         transform="translate(190.5947,690.1226)"
         style="stroke-width:0.319096"><path
           d="M 0,0 -0.098,0.843 V 5.136 H 0.489 V 0 Z m -1.16,-0.09 c -0.291,0 -0.558,0.078 -0.802,0.235 -0.243,0.157 -0.438,0.378 -0.583,0.663 -0.146,0.284 -0.219,0.62 -0.219,1.007 0,0.384 0.072,0.716 0.215,0.998 0.143,0.281 0.333,0.497 0.57,0.649 0.237,0.152 0.498,0.228 0.782,0.228 0.263,0 0.494,-0.064 0.694,-0.192 0.2,-0.128 0.355,-0.313 0.465,-0.554 0.111,-0.24 0.166,-0.532 0.166,-0.873 h -0.226 c 0,0.238 -0.047,0.439 -0.141,0.602 C -0.333,2.836 -0.456,2.96 -0.606,3.044 -0.757,3.128 -0.919,3.17 -1.092,3.17 -1.288,3.17 -1.467,3.116 -1.628,3.006 -1.791,2.897 -1.92,2.742 -2.017,2.54 -2.113,2.337 -2.161,2.096 -2.161,1.815 c 0,-0.286 0.048,-0.532 0.144,-0.738 0.097,-0.206 0.226,-0.364 0.389,-0.474 0.161,-0.111 0.34,-0.166 0.536,-0.166 0.163,0 0.321,0.042 0.472,0.128 0.152,0.085 0.277,0.21 0.375,0.374 0.098,0.165 0.147,0.364 0.147,0.597 H 0.128 C 0.128,1.187 0.071,0.892 -0.043,0.649 -0.158,0.407 -0.312,0.223 -0.506,0.098 -0.701,-0.028 -0.919,-0.09 -1.16,-0.09"
           style="fill:#7a7c7d;fill-opacity:1;fill-rule:nonzero;stroke:none;stroke-width:0.319096"
           id="path996" /></g><g
         id="g998"
         transform="translate(193.8589,690.0322)"
         style="stroke-width:0.319096"><path
           d="m 0,0 c -0.311,0 -0.589,0.08 -0.834,0.239 -0.245,0.159 -0.438,0.381 -0.58,0.665 -0.142,0.283 -0.212,0.61 -0.212,0.979 0,0.393 0.07,0.732 0.21,1.016 0.141,0.284 0.333,0.501 0.578,0.653 C -0.593,3.704 -0.314,3.78 0,3.78 0.273,3.78 0.507,3.725 0.7,3.615 0.894,3.504 1.049,3.354 1.167,3.167 1.285,2.978 1.367,2.766 1.414,2.528 1.46,2.291 1.473,2.046 1.454,1.792 H -1.152 V 2.154 H 1.065 L 0.892,2.041 C 0.9,2.189 0.892,2.337 0.868,2.485 0.844,2.633 0.799,2.769 0.734,2.894 0.669,3.018 0.577,3.118 0.459,3.193 0.341,3.268 0.191,3.306 0.007,3.306 -0.224,3.306 -0.417,3.247 -0.572,3.129 -0.728,3.011 -0.845,2.856 -0.922,2.664 -1,2.472 -1.039,2.264 -1.039,2.041 V 1.8 c 0,-0.251 0.038,-0.476 0.115,-0.674 C -0.848,0.928 -0.733,0.771 -0.58,0.655 -0.427,0.54 -0.233,0.482 0,0.482 c 0.233,0 0.425,0.057 0.576,0.169 0.151,0.113 0.242,0.28 0.275,0.501 h 0.61 C 1.423,0.914 1.338,0.708 1.205,0.537 1.072,0.364 0.902,0.232 0.697,0.139 0.491,0.046 0.258,0 0,0"
           style="fill:#7a7c7d;fill-opacity:1;fill-rule:nonzero;stroke:none;stroke-width:0.319096"
           id="path1000" /></g><path
         d="m 196.476,695.258 h 0.587 v -5.136 h -0.587 z"
         style="fill:#7a7c7d;fill-opacity:1;fill-rule:nonzero;stroke:none;stroke-width:0.319096"
         id="path1002" /><g
         id="g1004"
         transform="translate(200.3647,690.1226)"
         style="stroke-width:0.319096"><path
           d="M 0,0 V 4.729 H 2.914 V 4.225 H 0.587 V 2.636 H 2.779 V 2.131 H 0.587 V 0.512 H 2.914 V 0 Z"
           style="fill:#7a7c7d;fill-opacity:1;fill-rule:nonzero;stroke:none;stroke-width:0.319096"
           id="path1006" /></g><g
         id="g1008"
         transform="translate(205.8994,690.0322)"
         style="stroke-width:0.319096"><path
           d="m 0,0 c -0.349,0 -0.64,0.049 -0.874,0.149 -0.233,0.099 -0.41,0.236 -0.53,0.41 -0.121,0.174 -0.185,0.375 -0.192,0.601 h 0.564 c 0.013,-0.229 0.105,-0.4 0.277,-0.514 0.172,-0.114 0.406,-0.172 0.702,-0.172 0.156,0 0.299,0.026 0.429,0.076 0.131,0.05 0.235,0.119 0.313,0.207 0.078,0.088 0.117,0.187 0.117,0.297 0,0.141 -0.052,0.251 -0.155,0.331 C 0.548,1.466 0.384,1.536 0.158,1.597 l -0.7,0.225 c -0.304,0.095 -0.537,0.227 -0.698,0.394 -0.162,0.167 -0.243,0.367 -0.243,0.6 0,0.291 0.128,0.525 0.384,0.701 0.256,0.175 0.592,0.263 1.009,0.263 0.442,0 0.784,-0.09 1.027,-0.271 C 1.181,3.329 1.308,3.103 1.318,2.832 H 0.738 C 0.715,2.989 0.635,3.109 0.497,3.191 0.359,3.272 0.164,3.313 -0.09,3.313 c -0.244,0 -0.434,-0.054 -0.571,-0.164 -0.136,-0.108 -0.205,-0.23 -0.205,-0.363 0,-0.248 0.214,-0.432 0.64,-0.55 L 0.49,1.996 C 0.798,1.903 1.035,1.781 1.199,1.63 1.364,1.479 1.446,1.288 1.446,1.054 1.446,0.874 1.387,0.703 1.269,0.542 1.151,0.381 0.984,0.251 0.768,0.15 0.552,0.05 0.296,0 0,0"
           style="fill:#7a7c7d;fill-opacity:1;fill-rule:nonzero;stroke:none;stroke-width:0.319096"
           id="path1010" /></g><g
         id="g1012"
         transform="translate(209.668,690.0322)"
         style="stroke-width:0.319096"><path
           d="m 0,0 c -0.195,0 -0.371,0.038 -0.527,0.113 -0.156,0.075 -0.279,0.188 -0.369,0.339 -0.09,0.151 -0.135,0.339 -0.135,0.565 v 3.674 h 0.579 V 1.032 c 0,-0.372 0.174,-0.558 0.52,-0.558 0.103,0 0.203,0.012 0.299,0.034 0.097,0.023 0.205,0.057 0.326,0.102 L 0.776,0.188 C 0.648,0.133 0.521,0.088 0.394,0.053 0.267,0.018 0.136,0 0,0 M -1.611,3.69 H 0.686 V 3.283 h -2.297 z"
           style="fill:#7a7c7d;fill-opacity:1;fill-rule:nonzero;stroke:none;stroke-width:0.319096"
           id="path1014" /></g><g
         id="g1016"
         transform="translate(213.6216,690.1226)"
         style="stroke-width:0.319096"><path
           d="m 0,0 -0.075,0.791 v 1.543 c 0,0.324 -0.069,0.557 -0.207,0.699 -0.138,0.142 -0.345,0.213 -0.621,0.213 -0.156,0 -0.298,-0.023 -0.424,-0.068 C -1.454,3.132 -1.554,3.063 -1.628,2.969 -1.702,2.875 -1.739,2.753 -1.739,2.605 h -0.656 c 0,0.262 0.064,0.472 0.192,0.631 0.128,0.16 0.305,0.275 0.53,0.347 0.224,0.071 0.481,0.107 0.77,0.107 0.276,0 0.52,-0.046 0.734,-0.14 C 0.044,3.458 0.211,3.31 0.332,3.108 0.452,2.906 0.512,2.643 0.512,2.319 V 0 Z m -1.228,-0.09 c -0.295,0 -0.54,0.052 -0.733,0.158 -0.194,0.105 -0.338,0.242 -0.434,0.41 -0.095,0.168 -0.143,0.345 -0.143,0.531 0,0.243 0.061,0.442 0.183,0.595 0.122,0.153 0.288,0.265 0.499,0.337 0.211,0.072 0.448,0.107 0.711,0.107 0.189,0 0.377,-0.019 0.567,-0.056 0.19,-0.038 0.375,-0.089 0.556,-0.155 V 1.468 c -0.151,0.061 -0.321,0.108 -0.511,0.143 -0.189,0.035 -0.363,0.053 -0.521,0.053 -0.241,0 -0.445,-0.049 -0.61,-0.148 -0.166,-0.099 -0.249,-0.268 -0.249,-0.507 0,-0.176 0.064,-0.326 0.19,-0.452 0.127,-0.125 0.33,-0.188 0.609,-0.188 0.196,0 0.372,0.046 0.529,0.137 0.156,0.092 0.281,0.207 0.373,0.345 0.091,0.138 0.137,0.276 0.137,0.414 H 0.068 C 0.068,1.024 0.016,0.801 -0.088,0.595 -0.193,0.389 -0.341,0.223 -0.535,0.098 -0.728,-0.028 -0.959,-0.09 -1.228,-0.09"
           style="fill:#7a7c7d;fill-opacity:1;fill-rule:nonzero;stroke:none;stroke-width:0.319096"
           id="path1018" /></g><g
         id="g1020"
         transform="translate(217.9854,690.1226)"
         style="stroke-width:0.319096"><path
           d="M 0,0 -0.098,0.843 V 5.136 H 0.489 V 0 Z m -1.16,-0.09 c -0.291,0 -0.558,0.078 -0.802,0.235 -0.243,0.157 -0.438,0.378 -0.583,0.663 -0.146,0.284 -0.219,0.62 -0.219,1.007 0,0.384 0.072,0.716 0.215,0.998 0.143,0.281 0.333,0.497 0.57,0.649 0.237,0.152 0.498,0.228 0.782,0.228 0.263,0 0.495,-0.064 0.695,-0.192 C -0.303,3.37 -0.148,3.185 -0.038,2.944 0.073,2.704 0.128,2.412 0.128,2.071 h -0.226 c 0,0.238 -0.047,0.439 -0.141,0.602 C -0.333,2.836 -0.456,2.96 -0.606,3.044 -0.757,3.128 -0.919,3.17 -1.092,3.17 -1.288,3.17 -1.466,3.116 -1.628,3.006 -1.791,2.897 -1.92,2.742 -2.016,2.54 -2.113,2.337 -2.161,2.096 -2.161,1.815 c 0,-0.286 0.048,-0.532 0.145,-0.738 0.096,-0.206 0.225,-0.364 0.388,-0.474 0.162,-0.111 0.34,-0.166 0.536,-0.166 0.163,0 0.321,0.042 0.472,0.128 0.152,0.085 0.277,0.21 0.375,0.374 0.098,0.165 0.147,0.364 0.147,0.597 H 0.128 C 0.128,1.187 0.071,0.892 -0.043,0.649 -0.158,0.407 -0.312,0.223 -0.506,0.098 -0.701,-0.028 -0.919,-0.09 -1.16,-0.09"
           style="fill:#7a7c7d;fill-opacity:1;fill-rule:nonzero;stroke:none;stroke-width:0.319096"
           id="path1022" /></g><g
         id="g1024"
         transform="translate(221.2871,690.5444)"
         style="stroke-width:0.319096"><path
           d="M 0,0 C 0.233,0 0.432,0.056 0.595,0.167 0.758,0.279 0.882,0.438 0.966,0.644 1.05,0.85 1.092,1.094 1.092,1.378 1.092,1.807 1.003,2.145 0.825,2.393 0.646,2.64 0.382,2.763 0.03,2.763 -0.206,2.763 -0.405,2.708 -0.566,2.596 -0.729,2.484 -0.852,2.325 -0.936,2.118 -1.02,1.911 -1.062,1.664 -1.062,1.378 c 0,-0.424 0.09,-0.76 0.27,-1.007 C -0.613,0.124 -0.349,0 0,0 m 0.015,-0.512 c -0.324,0 -0.612,0.071 -0.864,0.215 -0.252,0.142 -0.451,0.355 -0.597,0.636 -0.145,0.281 -0.218,0.627 -0.218,1.039 0,0.414 0.073,0.761 0.218,1.041 0.146,0.28 0.345,0.491 0.597,0.634 0.252,0.143 0.54,0.215 0.864,0.215 0.321,0 0.608,-0.072 0.86,-0.215 C 1.128,2.91 1.326,2.699 1.471,2.419 1.615,2.139 1.687,1.792 1.687,1.378 1.687,0.966 1.615,0.62 1.471,0.339 1.326,0.058 1.128,-0.155 0.875,-0.297 0.623,-0.441 0.336,-0.512 0.015,-0.512"
           style="fill:#7a7c7d;fill-opacity:1;fill-rule:nonzero;stroke:none;stroke-width:0.319096"
           id="path1026" /></g><g
         id="g1028"
         transform="translate(228.3506,690.1226)"
         style="stroke-width:0.319096"><path
           d="M 0,0 -0.098,0.843 V 5.136 H 0.489 V 0 Z m -1.16,-0.09 c -0.291,0 -0.558,0.078 -0.802,0.235 -0.243,0.157 -0.438,0.378 -0.583,0.663 -0.146,0.284 -0.219,0.62 -0.219,1.007 0,0.384 0.072,0.716 0.215,0.998 0.143,0.281 0.333,0.497 0.57,0.649 0.237,0.152 0.498,0.228 0.782,0.228 0.263,0 0.494,-0.064 0.694,-0.192 0.2,-0.128 0.355,-0.313 0.465,-0.554 0.111,-0.24 0.166,-0.532 0.166,-0.873 h -0.226 c 0,0.238 -0.047,0.439 -0.141,0.602 C -0.333,2.836 -0.456,2.96 -0.606,3.044 -0.757,3.128 -0.919,3.17 -1.092,3.17 -1.288,3.17 -1.467,3.116 -1.629,3.006 -1.791,2.897 -1.92,2.742 -2.017,2.54 -2.113,2.337 -2.161,2.096 -2.161,1.815 c 0,-0.286 0.048,-0.532 0.144,-0.738 0.097,-0.206 0.226,-0.364 0.388,-0.474 0.162,-0.111 0.341,-0.166 0.537,-0.166 0.163,0 0.321,0.042 0.472,0.128 0.152,0.085 0.277,0.21 0.375,0.374 0.098,0.165 0.147,0.364 0.147,0.597 H 0.128 C 0.128,1.187 0.071,0.892 -0.043,0.649 -0.158,0.407 -0.312,0.223 -0.506,0.098 -0.701,-0.028 -0.919,-0.09 -1.16,-0.09"
           style="fill:#7a7c7d;fill-opacity:1;fill-rule:nonzero;stroke:none;stroke-width:0.319096"
           id="path1030" /></g><g
         id="g1032"
         transform="translate(231.6147,690.0322)"
         style="stroke-width:0.319096"><path
           d="m 0,0 c -0.311,0 -0.589,0.08 -0.834,0.239 -0.245,0.159 -0.438,0.381 -0.58,0.665 -0.142,0.283 -0.212,0.61 -0.212,0.979 0,0.393 0.07,0.732 0.21,1.016 0.141,0.284 0.333,0.501 0.578,0.653 C -0.593,3.704 -0.314,3.78 0,3.78 0.273,3.78 0.507,3.725 0.7,3.615 0.894,3.504 1.049,3.354 1.167,3.167 1.285,2.978 1.367,2.766 1.414,2.528 1.46,2.291 1.473,2.046 1.453,1.792 H -1.152 V 2.154 H 1.065 L 0.892,2.041 C 0.9,2.189 0.892,2.337 0.868,2.485 0.844,2.633 0.799,2.769 0.734,2.894 0.669,3.018 0.577,3.118 0.459,3.193 0.341,3.268 0.19,3.306 0.007,3.306 -0.224,3.306 -0.417,3.247 -0.572,3.129 -0.728,3.011 -0.845,2.856 -0.922,2.664 -1,2.472 -1.039,2.264 -1.039,2.041 V 1.8 c 0,-0.251 0.038,-0.476 0.115,-0.674 C -0.848,0.928 -0.733,0.771 -0.58,0.655 -0.427,0.54 -0.233,0.482 0,0.482 c 0.233,0 0.425,0.057 0.576,0.169 0.151,0.113 0.242,0.28 0.275,0.501 h 0.61 C 1.423,0.914 1.338,0.708 1.205,0.537 1.072,0.364 0.902,0.232 0.696,0.139 0.491,0.046 0.258,0 0,0"
           style="fill:#7a7c7d;fill-opacity:1;fill-rule:nonzero;stroke:none;stroke-width:0.319096"
           id="path1034" /></g><g
         id="g1036"
         transform="translate(236.02,694.8516)"
         style="stroke-width:0.319096"><path
           d="M 0,0 H 0.843 L 2.47,-3.268 H 2.41 L 4.036,0 H 4.857 V -4.729 H 4.262 V -0.61 H 4.367 L 2.635,-4.134 H 2.244 L 0.52,-0.632 H 0.587 V -4.729 H 0 Z"
           style="fill:#7a7c7d;fill-opacity:1;fill-rule:nonzero;stroke:none;stroke-width:0.319096"
           id="path1038" /></g><g
         id="g1040"
         transform="translate(243.3501,694.3359)"
         style="stroke-width:0.319096"><path
           d="m 0,0 -0.293,0.237 1.265,1.322 0.41,-0.335 z m 0.298,-4.304 c -0.312,0 -0.59,0.08 -0.835,0.24 -0.244,0.159 -0.437,0.38 -0.579,0.664 -0.142,0.283 -0.213,0.61 -0.213,0.979 0,0.394 0.071,0.733 0.211,1.016 0.14,0.284 0.333,0.502 0.578,0.654 0.245,0.151 0.524,0.228 0.838,0.228 0.273,0 0.507,-0.056 0.7,-0.166 0.193,-0.111 0.349,-0.26 0.467,-0.448 0.118,-0.189 0.2,-0.401 0.246,-0.638 0.047,-0.238 0.06,-0.483 0.04,-0.737 H -0.854 V -2.15 H 1.363 L 1.19,-2.263 c 0.007,0.148 -10e-4,0.296 -0.024,0.444 -0.024,0.149 -0.069,0.284 -0.134,0.409 -0.065,0.124 -0.157,0.224 -0.275,0.299 -0.118,0.075 -0.269,0.113 -0.452,0.113 -0.231,0 -0.424,-0.059 -0.579,-0.177 -0.156,-0.118 -0.273,-0.273 -0.351,-0.465 -0.078,-0.192 -0.117,-0.4 -0.117,-0.623 v -0.241 c 0,-0.251 0.039,-0.475 0.116,-0.674 0.076,-0.198 0.191,-0.355 0.344,-0.47 0.153,-0.116 0.346,-0.174 0.58,-0.174 0.233,0 0.425,0.057 0.576,0.17 0.15,0.112 0.242,0.279 0.274,0.5 h 0.61 C 1.721,-3.39 1.636,-3.595 1.502,-3.767 1.37,-3.939 1.2,-4.072 0.994,-4.165 0.789,-4.257 0.556,-4.304 0.298,-4.304"
           style="fill:#7a7c7d;fill-opacity:1;fill-rule:nonzero;stroke:none;stroke-width:0.319096"
           id="path1042" /></g><g
         id="g1044"
         transform="translate(245.6997,690.1226)"
         style="stroke-width:0.319096"><path
           d="M 0,0 1.363,1.8 0,3.607 H 0.715 L 1.747,2.244 2.741,3.607 H 3.456 L 2.086,1.8 3.449,0 H 2.733 L 1.702,1.371 0.715,0 Z"
           style="fill:#7a7c7d;fill-opacity:1;fill-rule:nonzero;stroke:none;stroke-width:0.319096"
           id="path1046" /></g><path
         d="m 250.154,693.729 h 0.587 v -3.607 h -0.587 z m 0.293,0.844 c -0.12,0 -0.216,0.034 -0.286,0.104 -0.07,0.069 -0.105,0.159 -0.105,0.273 0,0.11 0.035,0.198 0.105,0.263 0.07,0.065 0.166,0.098 0.286,0.098 0.121,0 0.216,-0.033 0.286,-0.098 0.071,-0.065 0.106,-0.153 0.106,-0.263 0,-0.114 -0.035,-0.204 -0.106,-0.273 -0.07,-0.07 -0.165,-0.104 -0.286,-0.104"
         style="fill:#7a7c7d;fill-opacity:1;fill-rule:nonzero;stroke:none;stroke-width:0.319096"
         id="path1048" /><g
         id="g1050"
         transform="translate(253.625,690.0322)"
         style="stroke-width:0.319096"><path
           d="m 0,0 c -0.289,0 -0.558,0.078 -0.808,0.233 -0.249,0.156 -0.451,0.375 -0.604,0.659 -0.153,0.284 -0.23,0.619 -0.23,1.005 0,0.397 0.077,0.736 0.23,1.017 0.153,0.281 0.355,0.496 0.604,0.644 C -0.558,3.706 -0.289,3.78 0,3.78 0.203,3.78 0.386,3.75 0.548,3.688 0.71,3.626 0.851,3.542 0.972,3.434 1.092,3.326 1.192,3.204 1.271,3.067 1.35,2.93 1.408,2.786 1.446,2.636 L 0.843,2.583 C 0.781,2.791 0.676,2.956 0.529,3.078 0.382,3.2 0.203,3.261 -0.007,3.261 -0.186,3.261 -0.354,3.21 -0.51,3.108 -0.667,3.006 -0.794,2.854 -0.892,2.652 -0.99,2.45 -1.039,2.199 -1.039,1.897 c 0,-0.278 0.044,-0.52 0.133,-0.724 0.09,-0.205 0.212,-0.363 0.367,-0.477 0.156,-0.113 0.333,-0.169 0.532,-0.169 0.278,0 0.489,0.069 0.634,0.205 0.144,0.137 0.216,0.327 0.216,0.571 H 1.446 C 1.446,1.052 1.387,0.828 1.269,0.633 1.151,0.437 0.983,0.282 0.766,0.169 0.549,0.057 0.294,0 0,0"
           style="fill:#7a7c7d;fill-opacity:1;fill-rule:nonzero;stroke:none;stroke-width:0.319096"
           id="path1052" /></g><g
         id="g1054"
         transform="translate(257.5332,690.5444)"
         style="stroke-width:0.319096"><path
           d="M 0,0 C 0.233,0 0.432,0.056 0.595,0.167 0.758,0.279 0.881,0.438 0.966,0.644 1.05,0.85 1.092,1.094 1.092,1.378 1.092,1.807 1.003,2.145 0.825,2.393 0.646,2.64 0.381,2.763 0.03,2.763 -0.206,2.763 -0.405,2.708 -0.567,2.596 -0.729,2.484 -0.852,2.325 -0.936,2.118 -1.02,1.911 -1.062,1.664 -1.062,1.378 c 0,-0.424 0.09,-0.76 0.27,-1.007 C -0.613,0.124 -0.349,0 0,0 m 0.015,-0.512 c -0.324,0 -0.612,0.071 -0.864,0.215 -0.253,0.142 -0.451,0.355 -0.597,0.636 -0.145,0.281 -0.218,0.627 -0.218,1.039 0,0.414 0.073,0.761 0.218,1.041 0.146,0.28 0.344,0.491 0.597,0.634 0.252,0.143 0.54,0.215 0.864,0.215 0.321,0 0.608,-0.072 0.86,-0.215 C 1.128,2.91 1.326,2.699 1.47,2.419 1.615,2.139 1.687,1.792 1.687,1.378 1.687,0.966 1.615,0.62 1.47,0.339 1.326,0.058 1.128,-0.155 0.875,-0.297 0.623,-0.441 0.336,-0.512 0.015,-0.512"
           style="fill:#7a7c7d;fill-opacity:1;fill-rule:nonzero;stroke:none;stroke-width:0.319096"
           id="path1056" /></g><g
         id="g1058"
         transform="translate(102.2583,725.1611)"
         style="stroke-width:0.319096"><path
           d="m 0,0 -4.945,5.872 c -2.013,2.439 -4.877,3.242 -7.459,2.431 -1.49,-0.335 -2.913,-1.194 -4.06,-2.583 l -21.075,-25.536 c -3.02,-3.66 -3.02,-9.647 0,-13.307 3.02,-3.659 7.962,-3.659 10.982,0 z"
           style="fill:#1b3149;fill-opacity:1;fill-rule:nonzero;stroke:none;stroke-width:0.319096"
           id="path1060" /></g><g
         id="g1062"
         transform="translate(116.6343,697.8403)"
         style="stroke-width:0.319096"><path
           d="m 0,0 c -1.191,1.448 -2.402,1.93 -3.979,1.93 -1.837,0 -3.201,-1.621 -3.733,-2.149 l -4.854,-5.881 3.338,-3.977 c 3.02,-3.659 7.962,-3.659 10.982,0 1.243,1.506 1.973,3.407 2.193,5.376 z"
           style="fill:#1b3149;fill-opacity:1;fill-rule:nonzero;stroke:none;stroke-width:0.319096"
           id="path1064" /></g></g><g
       id="g876"
       transform="translate(119.0469,75.9453)"><path
         d="M 0,0 C 0.053,0.069 0.177,0.165 0.201,0.28 0.237,0.458 0.104,0.603 -0.068,0.577 -0.178,0.561 -0.326,0.425 -0.354,0.315 -0.398,0.146 -0.271,0.03 0,0 M -0.07,1.183 C 0.418,1.181 0.809,0.79 0.812,0.302 0.813,-0.19 0.4,-0.604 -0.086,-0.595 c -0.486,0.01 -0.881,0.407 -0.883,0.888 -0.002,0.495 0.398,0.891 0.899,0.89"
         style="fill:#f68815;fill-opacity:1;fill-rule:nonzero;stroke:none"
         id="path878" /></g><g
       id="g880"
       transform="translate(118.9448,91.4766)"><path
         d="m 0,0 c -0.279,0 -0.558,0 -0.837,-0.001 -0.205,0 -0.315,0.111 -0.313,0.305 0.003,0.184 0.12,0.282 0.308,0.282 0.575,0.001 1.151,0.003 1.727,0.001 C 1.084,0.586 1.203,0.474 1.199,0.28 1.195,0.1 1.08,-0.002 0.89,-0.002 H 0 Z"
         style="fill:#f68815;fill-opacity:1;fill-rule:nonzero;stroke:none"
         id="path882" /></g></g></svg>
